<svg width="309" height="64" viewBox="0 0 309 64" fill="none" xmlns="http://www.w3.org/2000/svg">
<path d="M84.3058 46.1539H73.2778V17.5105H84.1938C87.1421 17.5105 89.6896 18.084 91.835 19.2308C93.9902 20.3683 95.651 22.0093 96.8173 24.1539C97.9928 26.2891 98.5809 28.8485 98.5809 31.8322C98.5809 34.8159 97.9977 37.38 96.8314 39.5245C95.6651 41.6597 94.0136 43.3007 91.8775 44.4476C89.7407 45.5851 87.2166 46.1539 84.3058 46.1539ZM81.0588 39.5525H84.0263C85.4444 39.5525 86.6526 39.324 87.6508 38.8672C88.6582 38.4103 89.4236 37.6224 89.9458 36.5035C90.4778 35.3847 90.7438 33.8275 90.7438 31.8322C90.7438 29.8368 90.4729 28.2797 89.9316 27.1609C89.4002 26.042 88.6163 25.2541 87.5806 24.7973C86.5547 24.3403 85.2948 24.1119 83.8021 24.1119H81.0588V39.5525ZM111.608 46.5455C109.313 46.5455 107.335 46.1072 105.674 45.2308C104.023 44.345 102.749 43.077 101.854 41.4266C100.967 39.7669 100.524 37.7809 100.524 35.4686C100.524 33.2495 100.972 31.3101 101.867 29.6504C102.763 27.9907 104.027 26.6994 105.66 25.7763C107.293 24.8532 109.22 24.3917 111.44 24.3917C113.063 24.3917 114.533 24.6434 115.849 25.1469C117.164 25.6504 118.288 26.3823 119.221 27.3427C120.154 28.2938 120.873 29.4499 121.376 30.8112C121.88 32.1725 122.133 33.7063 122.133 35.4127V37.2028H102.931V32.9511H115.023C115.014 32.3357 114.855 31.7949 114.547 31.3287C114.248 30.8532 113.842 30.4849 113.329 30.2238C112.826 29.9534 112.252 29.8182 111.608 29.8182C110.983 29.8182 110.409 29.9534 109.887 30.2238C109.364 30.4849 108.944 30.8485 108.627 31.3147C108.319 31.7809 108.156 32.3264 108.137 32.9511V37.5385C108.137 38.2285 108.282 38.8439 108.571 39.3847C108.86 39.9255 109.276 40.3497 109.817 40.6574C110.358 40.9651 111.011 41.1189 111.776 41.1189C112.308 41.1189 112.793 41.0443 113.232 40.8951C113.679 40.7459 114.062 40.5315 114.379 40.2518C114.696 39.9627 114.93 39.6178 115.079 39.2168H122.133C121.89 40.7087 121.316 42.0047 120.411 43.105C119.506 44.1959 118.307 45.0443 116.814 45.6504C115.331 46.2471 113.595 46.5455 111.608 46.5455ZM143.948 31.6643H136.839C136.802 31.2261 136.648 30.8485 136.377 30.5315C136.107 30.2145 135.757 29.972 135.328 29.8042C134.908 29.6271 134.441 29.5385 133.928 29.5385C133.265 29.5385 132.696 29.6597 132.22 29.9021C131.745 30.1445 131.512 30.4896 131.521 30.9371C131.512 31.2541 131.647 31.5479 131.927 31.8182C132.216 32.0886 132.771 32.2984 133.592 32.4476L137.959 33.2308C140.16 33.6317 141.798 34.3077 142.871 35.2588C143.953 36.2005 144.499 37.4639 144.508 39.049C144.499 40.5781 144.041 41.9068 143.137 43.035C142.241 44.1539 141.014 45.021 139.456 45.6364C137.907 46.2424 136.139 46.5455 134.152 46.5455C130.867 46.5455 128.297 45.8742 126.441 44.5315C124.593 43.1888 123.562 41.4173 123.348 39.2168H131.017C131.12 39.8975 131.456 40.4243 132.025 40.7973C132.603 41.1609 133.331 41.3427 134.208 41.3427C134.917 41.3427 135.5 41.2215 135.958 40.9791C136.424 40.7367 136.662 40.3917 136.671 39.9441C136.662 39.5338 136.456 39.2075 136.055 38.9651C135.663 38.7226 135.047 38.5269 134.208 38.3776L130.401 37.7063C128.209 37.324 126.567 36.5968 125.475 35.5245C124.383 34.4522 123.842 33.0723 123.852 31.3847C123.842 29.8928 124.234 28.6294 125.027 27.5944C125.83 26.5501 126.973 25.7576 128.456 25.2168C129.949 24.6667 131.717 24.3917 133.76 24.3917C136.867 24.3917 139.316 25.035 141.107 26.3217C142.908 27.6084 143.855 29.3893 143.948 31.6643ZM159.302 24.6714V30.2658H145.139V24.6714H159.302ZM147.883 19.5245H155.608V39.2448C155.608 39.5432 155.659 39.7949 155.762 40C155.864 40.1959 156.023 40.345 156.238 40.4476C156.452 40.5408 156.727 40.5874 157.063 40.5874C157.296 40.5874 157.567 40.5595 157.875 40.5035C158.192 40.4476 158.425 40.401 158.575 40.3637L159.694 45.7903C159.349 45.8928 158.855 46.0187 158.211 46.1679C157.576 46.3171 156.821 46.4149 155.943 46.4616C154.171 46.5548 152.683 46.373 151.479 45.9161C150.276 45.4499 149.37 44.718 148.764 43.7203C148.158 42.7226 147.864 41.4732 147.883 39.972V19.5245ZM161.469 46.1539V24.6714H168.971V28.7553H169.195C169.587 27.2448 170.207 26.1399 171.056 25.4406C171.914 24.7413 172.917 24.3917 174.065 24.3917C174.401 24.3917 174.732 24.4196 175.059 24.4755C175.395 24.5222 175.717 24.5921 176.024 24.6853V31.2728C175.641 31.1423 175.17 31.0443 174.611 30.9791C174.051 30.9138 173.571 30.8811 173.169 30.8811C172.414 30.8811 171.733 31.0536 171.126 31.3986C170.529 31.7343 170.058 32.2098 169.713 32.8252C169.367 33.4313 169.195 34.1445 169.195 34.9651V46.1539H161.469ZM186.697 46.5455C184.365 46.5455 182.368 46.084 180.707 45.1609C179.046 44.2285 177.773 42.9325 176.887 41.2728C176 39.6038 175.557 37.669 175.557 35.4686C175.557 33.2681 176 31.338 176.887 29.6784C177.773 28.0094 179.046 26.7133 180.707 25.7903C182.368 24.8578 184.365 24.3917 186.697 24.3917C189.029 24.3917 191.026 24.8578 192.687 25.7903C194.348 26.7133 195.621 28.0094 196.507 29.6784C197.394 31.338 197.837 33.2681 197.837 35.4686C197.837 37.669 197.394 39.6038 196.507 41.2728C195.621 42.9325 194.348 44.2285 192.687 45.1609C191.026 46.084 189.029 46.5455 186.697 46.5455ZM186.753 40.8392C187.406 40.8392 187.971 40.6201 188.446 40.1819C188.922 39.7436 189.291 39.1189 189.552 38.3077C189.813 37.4965 189.944 36.5315 189.944 35.4127C189.944 34.2844 189.813 33.3194 189.552 32.5175C189.291 31.7063 188.922 31.0816 188.446 30.6434C187.971 30.2051 187.406 29.9861 186.753 29.9861C186.062 29.9861 185.47 30.2051 184.975 30.6434C184.481 31.0816 184.103 31.7063 183.842 32.5175C183.581 33.3194 183.45 34.2844 183.45 35.4127C183.45 36.5315 183.581 37.4965 183.842 38.3077C184.103 39.1189 184.481 39.7436 184.975 40.1819C185.47 40.6201 186.062 40.8392 186.753 40.8392ZM204.034 54.2098C203.148 54.2098 202.304 54.1399 201.502 54C200.699 53.8695 199.995 53.6877 199.388 53.4546L201.068 47.972C201.702 48.1959 202.281 48.3403 202.803 48.4056C203.335 48.4709 203.788 48.4336 204.161 48.2938C204.543 48.1539 204.818 47.8882 204.987 47.4965L205.154 47.105L197.597 24.6714H205.658L209.129 39.5525H209.353L212.88 24.6714H220.997L213.159 47.9441C212.768 49.1282 212.199 50.1912 211.452 51.1329C210.715 52.084 209.745 52.8346 208.541 53.3847C207.338 53.9347 205.835 54.2098 204.034 54.2098Z" fill="white"/>
<path d="M222.097 46.1539V17.5105H234.468C236.595 17.5105 238.457 17.9301 240.052 18.7693C241.648 19.6084 242.888 20.7879 243.775 22.3077C244.661 23.8275 245.105 25.6038 245.105 27.6364C245.105 29.6877 244.647 31.4639 243.733 32.9651C242.828 34.4663 241.554 35.6224 239.912 36.4336C238.279 37.2448 236.372 37.6504 234.188 37.6504H226.799V31.6084H232.621C233.535 31.6084 234.314 31.4499 234.958 31.1329C235.611 30.8066 236.111 30.345 236.455 29.7483C236.81 29.1515 236.987 28.4476 236.987 27.6364C236.987 26.8159 236.81 26.1166 236.455 25.5385C236.111 24.9511 235.611 24.5035 234.958 24.1959C234.314 23.8788 233.535 23.7203 232.621 23.7203H229.878V46.1539H222.097ZM256.981 46.5455C254.648 46.5455 252.652 46.084 250.991 45.1609C249.33 44.2285 248.057 42.9325 247.17 41.2728C246.284 39.6038 245.84 37.669 245.84 35.4686C245.84 33.2681 246.284 31.338 247.17 29.6784C248.057 28.0094 249.33 26.7133 250.991 25.7903C252.652 24.8578 254.648 24.3917 256.981 24.3917C259.313 24.3917 261.309 24.8578 262.97 25.7903C264.631 26.7133 265.904 28.0094 266.791 29.6784C267.677 31.338 268.121 33.2681 268.121 35.4686C268.121 37.669 267.677 39.6038 266.791 41.2728C265.904 42.9325 264.631 44.2285 262.97 45.1609C261.309 46.084 259.313 46.5455 256.981 46.5455ZM257.037 40.8392C257.69 40.8392 258.254 40.6201 258.73 40.1819C259.206 39.7436 259.574 39.1189 259.835 38.3077C260.097 37.4965 260.228 36.5315 260.228 35.4127C260.228 34.2844 260.097 33.3194 259.835 32.5175C259.574 31.7063 259.206 31.0816 258.73 30.6434C258.254 30.2051 257.69 29.9861 257.037 29.9861C256.346 29.9861 255.754 30.2051 255.259 30.6434C254.765 31.0816 254.387 31.7063 254.126 32.5175C253.864 33.3194 253.734 34.2844 253.734 35.4127C253.734 36.5315 253.864 37.4965 254.126 38.3077C254.387 39.1189 254.765 39.7436 255.259 40.1819C255.754 40.6201 256.346 40.8392 257.037 40.8392ZM270.27 46.1539V24.6714H277.772V28.7553H277.995C278.388 27.2448 279.008 26.1399 279.857 25.4406C280.715 24.7413 281.718 24.3917 282.865 24.3917C283.202 24.3917 283.533 24.4196 283.859 24.4755C284.195 24.5222 284.517 24.5921 284.825 24.6853V31.2728C284.442 31.1423 283.971 31.0443 283.412 30.9791C282.852 30.9138 282.371 30.8811 281.97 30.8811C281.215 30.8811 280.533 31.0536 279.927 31.3986C279.33 31.7343 278.859 32.2098 278.513 32.8252C278.168 33.4313 277.995 34.1445 277.995 34.9651V46.1539H270.27ZM294.098 34.0699V46.1539H286.373V24.6714H293.706V28.7553H293.93C294.397 27.394 295.217 26.3264 296.394 25.5525C297.578 24.7786 298.959 24.3917 300.536 24.3917C302.057 24.3917 303.377 24.7413 304.497 25.4406C305.625 26.1306 306.498 27.0816 307.114 28.2938C307.739 29.5059 308.047 30.8905 308.037 32.4476V46.1539H300.312V34.0699C300.321 33.0071 300.051 32.1725 299.5 31.5665C298.959 30.9604 298.203 30.6574 297.233 30.6574C296.599 30.6574 296.043 30.7973 295.568 31.077C295.101 31.3474 294.742 31.739 294.49 32.2518C294.238 32.7553 294.107 33.3613 294.098 34.0699Z" fill="#FF7A00"/>
<g style="mix-blend-mode:screen" opacity="0.7">
<path d="M58.8159 46.6616L17.3493 5.22171C14.4636 2.33784 9.78492 2.33784 6.8992 5.22171L5.22504 6.89479C2.33931 9.77866 2.33931 14.4543 5.22504 17.3382L46.6916 58.7782C49.5774 61.662 54.256 61.662 57.1418 58.7781L58.8159 57.1051C61.7017 54.2212 61.7017 49.5455 58.8159 46.6616Z" fill="#FF7A00"/>
</g>
<g style="mix-blend-mode:screen">
<path d="M5.22531 46.6617L46.6919 5.22171C49.5776 2.33784 54.2563 2.33784 57.1421 5.22171L58.8162 6.89479C61.7019 9.77867 61.7019 14.4543 58.8162 17.3382L17.3496 58.7782C14.4639 61.662 9.78519 61.662 6.89947 58.7782L5.22531 57.1051C2.33958 54.2212 2.33958 49.5455 5.22531 46.6617Z" fill="#FF7A00"/>
</g>
</svg>
